<svg width="24" height="24" viewBox="0 0 24 24" fill="none" xmlns="http://www.w3.org/2000/svg">
<path d="M4.8291 6.31C4.4891 6.49 3.8291 6.67 3.8291 7.13C3.8291 7.59 4.4091 7.83 4.7591 8.03C6.5291 9.03 8.2791 10.09 10.0391 11.12L11.0391 11.68C11.2391 11.8 11.4591 12 11.6991 11.96C11.9862 11.869 12.2589 11.7377 12.5091 11.57C13.0391 11.28 13.5091 10.96 14.0591 10.64L19.0591 7.48C19.2691 7.35 19.4891 7.19 19.5191 6.95C19.5491 6.71 19.2491 6.4 18.9691 6.23L13.7591 3.13C13.2541 2.75964 12.654 2.54108 12.0291 2.5C11.48 2.56131 10.9545 2.75709 10.4991 3.07L6.4991 5.39" stroke="white" stroke-linecap="round" stroke-linejoin="round"/>
<path d="M11.7891 11.96C11.7891 12.71 11.7891 13.44 11.7891 14.18V16.6V21.44" stroke="white" stroke-linecap="round" stroke-linejoin="round"/>
<path d="M3.81903 7.13998C3.70903 10.01 3.65903 12.88 3.71903 15.76C3.70486 16.1669 3.7624 16.573 3.88903 16.96C4.12903 17.55 4.88903 17.89 5.35903 18.23C5.82903 18.57 6.64903 19.07 7.35903 19.46C8.06903 19.85 8.85903 20.29 9.62903 20.66C10.3259 21.1325 11.1307 21.4215 11.969 21.5C12.6653 21.3196 13.3205 21.0073 13.899 20.58C14.559 20.2 15.229 19.82 15.899 19.43C16.569 19.04 17.359 18.53 18.079 18.07L19.129 17.38C19.4667 17.2123 19.7559 16.961 19.969 16.65C20.0765 16.3987 20.144 16.1321 20.169 15.86C20.2774 14.7067 20.3108 13.5476 20.269 12.39C20.269 11.23 20.169 10.05 20.269 8.89998C20.3191 8.47478 20.3191 8.04518 20.269 7.61998C20.2299 7.37813 20.1344 7.1489 19.9902 6.95085C19.846 6.75279 19.6572 6.59148 19.439 6.47998" stroke="white" stroke-linecap="round" stroke-linejoin="round"/>
<path d="M5.52905 11.3701L5.63905 15.8101" stroke="white" stroke-linecap="round" stroke-linejoin="round"/>
</svg>
