<svg width="24" height="24" viewBox="0 0 24 24" fill="none" xmlns="http://www.w3.org/2000/svg">
<path d="M6.61998 10.0002C6.61998 10.0002 5.79998 10.5702 6.10998 11.0502C6.49461 11.3699 6.9024 11.6607 7.32998 11.9202C7.87998 12.2802 9.49998 13.2002 11.02 14.1102C11.2989 14.3112 11.6207 14.4448 11.96 14.5002C12.608 14.3601 13.2248 14.1025 13.78 13.7402C14.85 13.1302 16.85 12.0902 17.87 11.3702C18.03 11.2502 18.56 10.8302 18.53 10.6302C18.5 10.4302 17.77 9.85021 17.42 9.72021" stroke="white" stroke-width="0.99" stroke-linecap="round" stroke-linejoin="round"/>
<path d="M18.56 10.6699C18.72 13.1199 18.77 18.1399 18.73 18.1899C18.69 18.2399 16.45 19.5699 15.3 20.1899C14.2362 20.857 13.1343 21.4614 12 21.9999C11.73 21.9999 6.22 18.5199 6.18 18.4499C6.14 18.3799 6 13.4299 6 10.9399" stroke="white" stroke-width="0.99" stroke-linecap="round" stroke-linejoin="round"/>
<path d="M10.51 3.3599C9.68216 3.76311 9.01324 4.43204 8.61003 5.2599C8.17896 6.07002 8.02856 7.00017 8.18236 7.90486C8.33616 8.80954 8.78547 9.63774 9.46003 10.2599C10.1351 10.7982 10.9613 11.1126 11.8234 11.1592C12.6856 11.2058 13.5409 10.9823 14.27 10.5199C14.9795 10.0257 15.5276 9.33344 15.846 8.52957C16.1643 7.72569 16.2388 6.84584 16.06 5.9999C15.8696 5.0945 15.3537 4.29039 14.61 3.7399C14.0147 3.33419 13.3256 3.08724 12.6081 3.02249C11.8906 2.95774 11.1684 3.07732 10.51 3.3699V3.3599Z" stroke="white" stroke-width="0.99" stroke-linecap="round" stroke-linejoin="round"/>
<path d="M9.99999 5.7002C9.74688 6.13244 9.61346 6.6243 9.61346 7.1252C9.61346 7.62609 9.74688 8.11795 9.99999 8.5502" stroke="white" stroke-width="0.74" stroke-linecap="round" stroke-linejoin="round"/>
<path d="M11.4 6.08009C11.6839 6.00152 11.9757 5.95457 12.27 5.94009C12.3897 5.93774 12.5082 5.96369 12.6159 6.01582C12.7237 6.06795 12.8176 6.14479 12.89 6.24009C12.9263 6.29528 12.9504 6.35766 12.9604 6.42297C12.9705 6.48828 12.9664 6.555 12.9484 6.61858C12.9303 6.68216 12.8988 6.74111 12.8559 6.79141C12.8131 6.84171 12.7599 6.88219 12.7 6.91009C12.4146 7.01906 12.1201 7.10272 11.82 7.16009C12.1513 7.11505 12.4856 7.09499 12.82 7.10009C13.13 7.10009 13.48 7.28009 13.53 7.59009C13.5448 7.71523 13.5235 7.842 13.4686 7.95541C13.4136 8.06882 13.3274 8.16414 13.22 8.23009C12.9422 8.398 12.6276 8.49575 12.3036 8.51492C11.9795 8.53408 11.6557 8.47408 11.36 8.34009C11.36 8.34009 11.42 6.83009 11.4 6.08009Z" stroke="white" stroke-width="0.74" stroke-linecap="round" stroke-linejoin="round"/>
<path d="M12.06 14.5801C12.06 16.8501 12.06 19.2801 12.06 21.5801" stroke="white" stroke-width="0.99" stroke-linecap="round" stroke-linejoin="round"/>
</svg>
