<svg width="24" height="24" viewBox="0 0 24 24" fill="none" xmlns="http://www.w3.org/2000/svg">
<path d="M8.86001 4.4998C8.84671 4.48677 8.83614 4.47121 8.82893 4.45404C8.82171 4.43687 8.81799 4.41843 8.81799 4.3998C8.81799 4.38118 8.82171 4.36274 8.82893 4.34557C8.83614 4.3284 8.84671 4.31284 8.86001 4.2998C9.15203 4.08225 9.46729 3.89779 9.80001 3.7498L10.3 3.4598L10.79 3.1798C11.1 3.0098 11.42 2.8598 11.73 2.6998C11.8629 2.61594 12.0136 2.56455 12.17 2.5498C12.2824 2.55267 12.391 2.59119 12.48 2.6598L13.58 3.2498L14.5 3.7398C14.59 3.7398 15.37 4.1598 15.39 4.2698C15.41 4.3798 15.25 4.3698 15.23 4.3798C15.0395 4.5004 14.8425 4.61056 14.64 4.7098L13.8 5.1698C13.6 5.2798 13.4 5.3798 13.2 5.4998C13 5.6198 12.75 5.7298 12.53 5.8698C12.4262 5.94945 12.3056 6.00436 12.1774 6.03036C12.0491 6.05635 11.9166 6.05274 11.79 6.0198C11.53 5.9198 10.89 5.5298 10.63 5.3798C10.37 5.2298 10 4.9998 9.78001 4.9398C9.46158 4.81912 9.15384 4.67194 8.86001 4.4998Z" stroke="white" stroke-width="0.96" stroke-linecap="round" stroke-linejoin="round"/>
<path d="M8.82001 4.40002C8.685 5.48584 8.685 6.5842 8.82001 7.67002C8.82018 7.80089 8.85924 7.92876 8.93225 8.03737C9.00525 8.14599 9.1089 8.23045 9.23001 8.28002C9.86001 8.60002 10.49 8.90002 11.14 9.17002C11.4656 9.3219 11.7995 9.45545 12.14 9.57002C12.65 9.70002 13.14 9.24002 13.56 8.99002L14.56 8.38002C14.77 8.25002 15.27 8.06002 15.35 7.82002C15.4449 7.39701 15.4752 6.9621 15.44 6.53002C15.44 5.78002 15.44 5.02002 15.44 4.27002" stroke="white" stroke-width="0.96" stroke-linecap="round" stroke-linejoin="round"/>
<path d="M12.08 6.08008L12.17 6.81008C12.17 7.03008 12.17 7.24008 12.17 7.46008C12.17 7.89008 12.17 8.33008 12.17 8.76008C12.17 8.96008 12.17 9.15008 12.17 9.35008" stroke="white" stroke-width="0.92" stroke-linecap="round" stroke-linejoin="round"/>
<path d="M15.24 13.7402C15.04 14.1702 14.24 14.4702 13.87 14.7402C13.3337 15.0409 12.7793 15.3081 12.21 15.5402" stroke="white" stroke-width="0.96" stroke-linecap="round" stroke-linejoin="round"/>
<path d="M12.21 15.5099C11.0922 15.1252 10.0349 14.583 9.07001 13.8999" stroke="white" stroke-width="0.96" stroke-linecap="round" stroke-linejoin="round"/>
<path d="M9.07003 13.9002C8.88003 13.7302 9.00003 12.7002 9.00003 12.1702C8.96983 11.5613 9.00672 10.951 9.11003 10.3502C9.21003 10.2202 9.54003 10.5602 9.71003 10.6502L10.55 11.1302C11.12 11.4502 12.18 12.1302 12.25 12.0802C12.32 12.0302 12.68 11.7802 12.88 11.6502L13.67 11.1602C14.21 10.8202 15.24 10.1602 15.29 10.1602C15.34 10.1602 15.38 10.3202 15.37 10.4802C15.36 10.6402 15.37 11.4002 15.32 12.0102C15.3751 12.5922 15.3751 13.1781 15.32 13.7602" stroke="white" stroke-width="0.96" stroke-linecap="round" stroke-linejoin="round"/>
<path d="M12.21 12.0898V12.9998C12.21 13.2698 12.21 13.6198 12.21 13.8998C12.21 14.4498 12.21 14.7598 12.21 15.3098" stroke="white" stroke-width="0.96" stroke-linecap="round" stroke-linejoin="round"/>
<path d="M15.24 19.3398C15.04 19.7698 14.24 20.0698 13.87 20.3398C13.3337 20.6405 12.7793 20.9077 12.21 21.1398" stroke="white" stroke-width="0.96" stroke-linecap="round" stroke-linejoin="round"/>
<path d="M12.21 21.11C11.0922 20.7253 10.0349 20.1831 9.07001 19.5" stroke="white" stroke-width="0.96" stroke-linecap="round" stroke-linejoin="round"/>
<path d="M9.07003 19.5001C8.88003 19.3301 9.00003 18.3001 9.00003 17.7701C8.96023 17.1792 8.9837 16.5859 9.07003 16.0001C9.17003 15.8701 9.50003 16.2001 9.67003 16.3001L10.51 16.7801C11.08 17.0901 12.14 17.7801 12.21 17.7301C12.28 17.6801 12.64 17.4301 12.84 17.3001L13.63 16.8101C14.17 16.4701 15.2 15.8101 15.25 15.8101C15.3 15.8101 15.34 15.9701 15.33 16.1301C15.32 16.2901 15.33 17.0501 15.28 17.6601C15.3351 18.2421 15.3351 18.828 15.28 19.4101" stroke="white" stroke-width="0.96" stroke-linecap="round" stroke-linejoin="round"/>
<path d="M12.21 17.6899V18.6299C12.21 18.8999 12.21 19.2499 12.21 19.5299C12.21 20.0799 12.21 20.3899 12.21 20.9399" stroke="white" stroke-width="0.96" stroke-linecap="round" stroke-linejoin="round"/>
</svg>
