<svg width="24" height="24" viewBox="0 0 24 24" fill="none" xmlns="http://www.w3.org/2000/svg">
<path d="M9.25564 10.9119C9.06393 11.5283 9.07617 12.1901 9.29056 12.7991C9.50494 13.408 9.91003 13.9315 10.4456 14.2919C10.9345 14.5744 11.4956 14.7071 12.0592 14.6733C12.6228 14.6395 13.1641 14.4408 13.6156 14.1019C14.0522 13.7479 14.3837 13.2813 14.5741 12.7525C14.7644 12.2237 14.8065 11.6529 14.6956 11.1019C14.5985 10.4962 14.3052 9.93923 13.8608 9.51648C13.4163 9.09373 12.8454 8.82861 12.2356 8.76187C11.5589 8.67553 10.8746 8.84957 10.3213 9.24874C9.76805 9.64792 9.38711 10.2424 9.25564 10.9119Z" stroke="white" stroke-linecap="round" stroke-linejoin="round"/>
<path d="M8.41561 2.52164C7.95735 2.59393 7.54505 2.84131 7.26561 3.21164C7.07093 3.48845 6.97844 3.82429 7.00398 4.16174C7.02952 4.49919 7.17149 4.81729 7.40561 5.06164C7.65627 5.26807 7.97089 5.38095 8.29561 5.38095C8.62033 5.38095 8.93495 5.26807 9.18561 5.06164C10.0956 4.36164 9.84561 2.29164 8.41561 2.52164Z" stroke="white" stroke-linecap="round" stroke-linejoin="round"/>
<path d="M15.7057 5.39159C15.6672 5.67527 15.7359 5.96313 15.8983 6.19888C16.0607 6.43462 16.3053 6.6013 16.5841 6.66631C16.8629 6.73133 17.156 6.69001 17.4059 6.55043C17.6559 6.41085 17.8448 6.18306 17.9357 5.91159C17.9909 5.75758 18.0131 5.59373 18.001 5.4306C17.9889 5.26747 17.9427 5.1087 17.8654 4.96452C17.7881 4.82035 17.6815 4.69398 17.5524 4.59357C17.4232 4.49316 17.2745 4.42095 17.1157 4.38159C16.9557 4.34194 16.7889 4.33749 16.627 4.36853C16.4651 4.39957 16.3118 4.46536 16.1778 4.56138C16.0437 4.65739 15.9321 4.78134 15.8506 4.92467C15.7691 5.068 15.7197 5.2273 15.7057 5.39159Z" stroke="white" stroke-linecap="round" stroke-linejoin="round"/>
<path d="M18.9956 10.6517C18.7314 10.6579 18.4745 10.7392 18.2548 10.8863C18.0352 11.0333 17.862 11.2398 17.7556 11.4817C17.6707 11.6816 17.6335 11.8985 17.6469 12.1153C17.6603 12.3321 17.7239 12.5427 17.8327 12.7307C17.9416 12.9186 18.0926 13.0787 18.274 13.1981C18.4553 13.3176 18.662 13.3933 18.8776 13.4191C19.0933 13.445 19.3119 13.4203 19.5164 13.347C19.7209 13.2738 19.9055 13.154 20.0556 12.9971C20.2058 12.8402 20.3174 12.6505 20.3816 12.4431C20.4458 12.2356 20.4609 12.016 20.4256 11.8017C20.3761 11.4651 20.2012 11.1596 19.9361 10.9464C19.6709 10.7332 19.3351 10.628 18.9956 10.6517Z" stroke="white" stroke-linecap="round" stroke-linejoin="round"/>
<path d="M17.0556 16.8918C16.9016 16.8602 16.7426 16.8617 16.5892 16.8961C16.4357 16.9306 16.2914 16.9973 16.1656 17.0918C15.997 17.2003 15.8515 17.3411 15.7375 17.5061C15.6234 17.6711 15.5432 17.857 15.5014 18.0531C15.4596 18.2493 15.457 18.4517 15.4937 18.6489C15.5305 18.846 15.6059 19.0339 15.7156 19.2018C15.9312 19.4659 16.2341 19.6444 16.5697 19.7049C16.9052 19.7654 17.2514 19.704 17.5456 19.5318C17.8301 19.3477 18.0422 19.0709 18.1461 18.7484C18.2499 18.4258 18.2392 18.0773 18.1156 17.7618C18.0245 17.5406 17.8799 17.3454 17.695 17.1936C17.51 17.0418 17.2904 16.9381 17.0556 16.8918Z" stroke="white" stroke-linecap="round" stroke-linejoin="round"/>
<path d="M4.85573 17.6218C4.46891 17.7939 4.14025 18.0744 3.90953 18.4293C3.67881 18.7843 3.55592 19.1985 3.55573 19.6218C3.59575 20.0927 3.79645 20.5355 4.12417 20.876C4.4519 21.2164 4.88672 21.4339 5.35573 21.4918C5.82756 21.5242 6.29623 21.3939 6.68377 21.1229C7.0713 20.8518 7.35432 20.4561 7.48572 20.0018C7.5898 19.5087 7.51392 18.9946 7.2718 18.5525C7.02968 18.1105 6.63732 17.7697 6.16573 17.5918C5.95624 17.5099 5.73259 17.4704 5.50772 17.4755C5.28285 17.4807 5.06124 17.5304 4.85573 17.6218Z" stroke="white" stroke-linecap="round" stroke-linejoin="round"/>
<path d="M4.90569 9.13171C4.74445 9.17838 4.60142 9.2734 4.49591 9.40394C4.3904 9.53449 4.32749 9.69427 4.31569 9.86171C4.30739 10.0862 4.37489 10.3069 4.50732 10.4883C4.63974 10.6697 4.82938 10.8012 5.04569 10.8617C5.27421 10.8931 5.50656 10.8446 5.70339 10.7243C5.90022 10.604 6.04941 10.4194 6.12569 10.2017C6.16353 10.0395 6.1566 9.86998 6.10564 9.71136C6.05468 9.55274 5.96161 9.41094 5.83636 9.30109C5.7111 9.19123 5.55837 9.11745 5.39446 9.08762C5.23055 9.05779 5.06161 9.07303 4.90569 9.13171Z" stroke="white" stroke-linecap="round" stroke-linejoin="round"/>
<path d="M9.11566 5.44141L10.5957 8.76141" stroke="white" stroke-linecap="round" stroke-linejoin="round"/>
<path d="M14.8057 11.6016L17.3757 11.7716" stroke="white" stroke-linecap="round" stroke-linejoin="round"/>
<path d="M13.6057 14.1616C14.2757 15.1016 14.9957 16.0116 15.6857 16.9416" stroke="white" stroke-linecap="round" stroke-linejoin="round"/>
<path d="M9.99567 14.0015C8.99567 15.3015 7.99567 16.6115 6.99567 17.9215" stroke="white" stroke-linecap="round" stroke-linejoin="round"/>
<path d="M6.32562 10.5215C7.19562 10.6915 8.32562 10.9315 9.11562 11.1015" stroke="white" stroke-linecap="round" stroke-linejoin="round"/>
<path d="M11.1957 10.6016C11.0178 10.719 10.8687 10.875 10.7594 11.058C10.65 11.241 10.5833 11.4462 10.5641 11.6585C10.5449 11.8707 10.5737 12.0846 10.6484 12.2842C10.7231 12.4838 10.8418 12.6641 10.9957 12.8116" stroke="white" stroke-linecap="round" stroke-linejoin="round"/>
<path d="M13.8957 9.35154L16.1457 6.58154" stroke="white" stroke-linecap="round" stroke-linejoin="round"/>
</svg>
