<svg width="24" height="24" viewBox="0 0 24 24" fill="none" xmlns="http://www.w3.org/2000/svg">
<path d="M2.66998 14.8398C2.66998 15.3298 2.66998 17.1898 3.37998 17.5798C4.35458 17.8554 5.37321 17.9403 6.37998 17.8298C8.07998 17.8298 14.81 17.6898 20.06 17.6598C20.5284 17.7147 21.0003 17.5896 21.38 17.3098C21.5304 17.114 21.6405 16.8903 21.704 16.6518C21.7675 16.4132 21.7831 16.1644 21.75 15.9198L21.66 7.06977C21.6943 6.78829 21.6683 6.50275 21.5838 6.23207C21.4994 5.96139 21.3583 5.71177 21.17 5.49977C20.7953 5.27192 20.3561 5.17353 19.92 5.21977H8.23998C6.75854 5.16115 5.27479 5.20794 3.79998 5.35977C3.36998 5.42977 3.04998 5.50977 2.87998 5.95977C2.77447 6.28203 2.73037 6.62124 2.74998 6.95977C2.73998 7.07977 2.66998 11.9198 2.66998 14.8398Z" stroke="white" stroke-linecap="round" stroke-linejoin="round"/>
<path d="M12.41 7.35986C12.4651 7.94858 12.4651 8.54115 12.41 9.12986V14.9999" stroke="white" stroke-width="0.75" stroke-linecap="round" stroke-linejoin="round"/>
<path d="M4.67999 8.10986L8.43999 8.16986" stroke="white" stroke-width="0.75" stroke-linecap="round" stroke-linejoin="round"/>
<path d="M4.76001 10.46H8.34001" stroke="white" stroke-width="0.75" stroke-linecap="round" stroke-linejoin="round"/>
<path d="M5 12.8398H6.23" stroke="white" stroke-width="0.75" stroke-linecap="round" stroke-linejoin="round"/>
<path d="M16.05 8.49023C16.3261 8.49023 16.55 8.26638 16.55 7.99023C16.55 7.71409 16.3261 7.49023 16.05 7.49023C15.7738 7.49023 15.55 7.71409 15.55 7.99023C15.55 8.26638 15.7738 8.49023 16.05 8.49023Z" fill="white"/>
<path d="M17.39 8H18.87" stroke="white" stroke-width="0.75" stroke-linecap="round" stroke-linejoin="round"/>
<path d="M16.11 10.3599H18.75" stroke="white" stroke-width="0.75" stroke-linecap="round" stroke-linejoin="round"/>
<path d="M16.05 12.6899L17.83 12.7399" stroke="white" stroke-width="0.75" stroke-linecap="round" stroke-linejoin="round"/>
<path d="M19.01 13.1501C19.2199 13.1501 19.39 12.98 19.39 12.7701C19.39 12.5603 19.2199 12.3901 19.01 12.3901C18.8001 12.3901 18.63 12.5603 18.63 12.7701C18.63 12.98 18.8001 13.1501 19.01 13.1501Z" fill="white"/>
</svg>
