<svg width="24" height="24" viewBox="0 0 24 24" fill="none" xmlns="http://www.w3.org/2000/svg">
<path d="M17.5734 16.1429C17.5734 16.6129 17.6434 19.0529 17.2934 19.3529C16.9434 19.6529 13.9534 19.5929 13.2134 19.5929C11.4034 19.5929 9.58342 19.5929 7.77342 19.6429H3.69342H2.62342C2.47342 19.6429 2.49342 19.0529 2.50342 18.7829V17.5929C2.50342 16.8529 2.50342 15.4729 2.50342 14.7229C2.50342 11.1529 2.43342 4.9629 2.77342 4.7229C3.38342 4.2229 6.05342 4.4829 7.83342 4.4729L13.8334 4.4129C15.2634 4.3629 16.9434 4.2729 17.2634 4.5429C17.4966 4.82213 17.6146 5.17973 17.5934 5.5429V6.8329V9.3929" stroke="white" stroke-linecap="round" stroke-linejoin="round"/>
<path d="M2.8634 7.80303C4.6434 7.74303 6.1834 7.80303 7.9334 7.73303L13.3734 7.65303L17.5634 7.60303" stroke="white" stroke-linecap="round" stroke-linejoin="round"/>
<path d="M5.58337 7.72266C5.58337 8.17266 5.58337 8.63266 5.58337 9.08266" stroke="white" stroke-linecap="round" stroke-linejoin="round"/>
<path d="M2.90344 10.5429C3.41556 10.4929 3.93133 10.4929 4.44344 10.5429" stroke="white" stroke-linecap="round" stroke-linejoin="round"/>
<path d="M5.4834 11.543C5.4834 11.543 5.4834 12.933 5.4834 13.233V15.143C5.4834 16.473 5.4834 17.813 5.4834 19.143" stroke="white" stroke-linecap="round" stroke-linejoin="round"/>
<path d="M6.8634 10.2931L8.9334 10.2431H11.2734L15.9034 10.1831" stroke="white" stroke-linecap="round" stroke-linejoin="round"/>
<path d="M11.6635 7.92285C11.6635 8.38285 11.6635 10.1229 11.6635 10.6129V12.1729C11.6635 12.6129 11.6635 13.6529 11.6635 13.6529" stroke="white" stroke-linecap="round" stroke-linejoin="round"/>
<path d="M9.64338 13.1631C9.6178 13.0369 9.55741 12.9204 9.46905 12.8267C9.38068 12.7331 9.26788 12.666 9.14338 12.6331C9.03252 12.6047 8.91642 12.6035 8.80498 12.6296C8.69354 12.6557 8.59007 12.7084 8.50338 12.7831C8.35108 12.9643 8.26187 13.1901 8.24924 13.4264C8.23661 13.6627 8.30125 13.8967 8.43338 14.0931C8.66338 14.5031 9.04338 14.8131 9.31338 15.2031C9.46615 15.3876 9.56172 15.6127 9.58836 15.8507C9.61501 16.0888 9.57157 16.3294 9.46338 16.5431C9.35604 16.7049 9.19154 16.8202 9.00283 16.8658C8.81411 16.9115 8.61511 16.8841 8.44569 16.7893C8.27626 16.6945 8.14891 16.5392 8.08915 16.3544C8.02938 16.1697 8.04161 15.9692 8.12338 15.7931" stroke="white" stroke-linecap="round" stroke-linejoin="round"/>
<path d="M8.94348 17.1128C8.94348 17.1128 8.94348 17.4628 8.94348 17.7828" stroke="white" stroke-linecap="round" stroke-linejoin="round"/>
<path d="M8.8634 11.6929C8.8634 11.8429 8.8634 11.9829 8.8634 12.1329" stroke="white" stroke-linecap="round" stroke-linejoin="round"/>
<path d="M20.2634 9.21313C20.4334 9.21313 20.6834 9.46313 20.8034 9.58313C20.9234 9.70313 21.0334 9.87313 21.1834 10.0231C21.3393 10.1442 21.4516 10.3127 21.5034 10.5031C21.5034 10.7531 21.3534 10.8531 21.1934 11.0031L20.8434 11.3331L20.1334 12.0031L18.7134 13.3331L18.6634 13.3931C17.7134 14.2831 17.2334 14.7631 16.2934 15.6531C16.1234 15.8131 15.5434 16.3831 15.3934 16.5431C14.8146 16.8082 14.1965 16.9771 13.5634 17.0431C13.5267 16.3622 13.6323 15.681 13.8734 15.0431C14.0934 14.8031 15.7734 13.2731 16.7334 12.3931L19.5834 9.74313C19.6934 9.59313 20.0234 9.19313 20.2634 9.21313Z" stroke="white" stroke-miterlimit="10"/>
</svg>
