<svg width="24" height="24" viewBox="0 0 24 24" fill="none" xmlns="http://www.w3.org/2000/svg">
<path d="M2.88922 4.69971C3.98922 5.23971 5.04922 5.76971 6.14922 6.33971" stroke="white" stroke-width="0.74" stroke-linecap="round" stroke-linejoin="round"/>
<path d="M6.14923 6.32959L9.62923 4.32959" stroke="white" stroke-width="0.74" stroke-linecap="round" stroke-linejoin="round"/>
<path d="M6.19916 6.31982C6.19916 7.59982 6.19916 10.1598 6.19916 10.1598" stroke="white" stroke-width="0.74" stroke-linecap="round" stroke-linejoin="round"/>
<path d="M9.72922 4.25982C9.77244 4.88241 9.77244 5.50724 9.72922 6.12982V7.76982C9.72922 7.90982 9.72922 8.06982 9.63922 8.16982C9.54922 8.26982 9.36922 8.31982 9.23922 8.39982C8.93922 8.55982 8.64922 8.72982 8.35922 8.89982C8.06922 9.06982 6.25922 10.1898 6.16922 10.2098C5.88818 10.1203 5.61943 9.996 5.36922 9.83982L4.50922 9.41982C4.09922 9.20982 3.68922 8.98982 3.26922 8.78982C3.11045 8.72337 2.95953 8.63952 2.81922 8.53982C2.75601 8.42385 2.73148 8.29071 2.74922 8.15982C2.74922 7.93982 2.74922 6.79982 2.74922 6.45982C2.71893 5.86354 2.71893 5.26611 2.74922 4.66982C2.74922 4.49982 3.27922 4.26982 3.51922 4.12982L4.44922 3.56982C5.04406 3.15024 5.69339 2.8138 6.37922 2.56982C6.97012 2.74359 7.53764 2.98873 8.06922 3.29982C8.66844 3.53296 9.22829 3.85673 9.72922 4.25982Z" stroke="white" stroke-width="0.99" stroke-linecap="round" stroke-linejoin="round"/>
<path d="M14.2592 4.69971C15.3592 5.23971 16.4092 5.77971 17.5092 6.33971" stroke="white" stroke-width="0.74" stroke-linecap="round" stroke-linejoin="round"/>
<path d="M17.5092 6.32959L20.9992 4.32959" stroke="white" stroke-width="0.74" stroke-linecap="round" stroke-linejoin="round"/>
<path d="M17.5692 6.31982C17.5692 7.59982 17.5692 10.1598 17.5692 10.1598" stroke="white" stroke-width="0.74" stroke-linecap="round" stroke-linejoin="round"/>
<path d="M21.0992 4.25982C21.1374 4.88257 21.1374 5.50707 21.0992 6.12982V7.76982C21.0992 7.90982 21.1492 8.06982 21.0192 8.16982C20.8892 8.26982 20.7492 8.31982 20.6092 8.39982L19.7292 8.89982C19.3492 9.11982 17.6392 10.1898 17.5492 10.2098C17.2642 10.1224 16.9919 9.99803 16.7392 9.83982L15.8892 9.41982C15.4692 9.20982 15.0592 8.98982 14.6392 8.78982C14.4826 8.71895 14.3321 8.63533 14.1892 8.53982C14.1307 8.42223 14.1064 8.29055 14.1192 8.15982C14.1192 7.93982 14.1192 6.79982 14.1192 6.45982C14.0889 5.86354 14.0889 5.26611 14.1192 4.66982C14.1792 4.49982 14.6492 4.26982 14.8892 4.12982L15.8292 3.56982C16.4194 3.14853 17.0657 2.81193 17.7492 2.56982C18.3408 2.74167 18.9086 2.98691 19.4392 3.29982C20.0367 3.53652 20.5961 3.86 21.0992 4.25982Z" stroke="white" stroke-width="0.99" stroke-linecap="round" stroke-linejoin="round"/>
<path d="M14.4391 15.9199C15.5491 16.4599 16.5991 16.9999 17.6991 17.5599" stroke="white" stroke-width="0.74" stroke-linecap="round" stroke-linejoin="round"/>
<path d="M17.6992 17.5498L21.1792 15.5498" stroke="white" stroke-width="0.74" stroke-linecap="round" stroke-linejoin="round"/>
<path d="M17.7492 17.54C17.7492 18.82 17.7492 21.38 17.7492 21.38" stroke="white" stroke-width="0.74" stroke-linecap="round" stroke-linejoin="round"/>
<path d="M21.2892 15.47C21.3265 16.0928 21.3265 16.7172 21.2892 17.34V18.99C21.2892 19.13 21.2892 19.29 21.1992 19.38C21.0717 19.4695 20.9381 19.5497 20.7992 19.62L19.9192 20.12C19.5292 20.34 17.8292 21.41 17.7292 21.43C17.4515 21.332 17.1836 21.2081 16.9292 21.06L16.0792 20.64L14.8292 20C14.67 19.9385 14.5189 19.8579 14.3792 19.76C14.3166 19.6438 14.2921 19.5109 14.3092 19.38C14.3092 19.16 14.3092 18.02 14.3092 17.68C14.2789 17.0837 14.2789 16.4863 14.3092 15.89C14.3092 15.72 14.8392 15.49 15.0792 15.35L16.0892 14.77C16.6747 14.3528 17.3138 14.0165 17.9892 13.77C18.5801 13.9438 19.1476 14.1889 19.6792 14.5C20.2578 14.7479 20.7995 15.0743 21.2892 15.47Z" stroke="white" stroke-width="0.99" stroke-linecap="round" stroke-linejoin="round"/>
<path d="M2.84918 15.4399C3.98918 15.9799 4.98918 16.5299 6.10918 17.0799" stroke="white" stroke-width="0.74" stroke-linecap="round" stroke-linejoin="round"/>
<path d="M6.10919 17.0698L9.58919 15.0698" stroke="white" stroke-width="0.74" stroke-linecap="round" stroke-linejoin="round"/>
<path d="M6.15924 17.0601C6.15924 18.3401 6.15924 20.9001 6.15924 20.9001" stroke="white" stroke-width="0.74" stroke-linecap="round" stroke-linejoin="round"/>
<path d="M9.68924 14.9996C9.73247 15.6222 9.73247 16.247 9.68924 16.8696V18.5096C9.68924 18.6596 9.73924 18.8096 9.60924 18.9096C9.48165 18.9958 9.34797 19.0727 9.20924 19.1396L8.32924 19.6396C7.93924 19.8596 6.22924 20.9396 6.13924 20.9496C5.86018 20.8593 5.5919 20.7385 5.33924 20.5896L4.47924 20.1596L3.23924 19.5296C3.0786 19.467 2.92721 19.3829 2.78924 19.2796C2.72675 19.1632 2.69898 19.0313 2.70924 18.8996C2.70924 18.6796 2.70924 17.5396 2.70924 17.1996C2.67399 16.6034 2.67399 16.0057 2.70924 15.4096C2.70924 15.2396 3.22924 15.0196 3.47924 14.8696L4.40924 14.3096C5.00529 13.892 5.65434 13.5557 6.33924 13.3096C6.93014 13.4833 7.49766 13.7285 8.02924 14.0396C8.62846 14.2727 9.18832 14.5965 9.68924 14.9996Z" stroke="white" stroke-width="0.99" stroke-linecap="round" stroke-linejoin="round"/>
<path d="M6.20917 10.23C6.20917 10.78 6.20917 11.87 6.20917 11.87" stroke="white" stroke-width="0.74" stroke-linecap="round" stroke-linejoin="round"/>
<path d="M9.65924 15.1099C10.4292 15.1099 11.9692 15.1099 11.9692 15.1099" stroke="white" stroke-width="0.74" stroke-linecap="round" stroke-linejoin="round"/>
<path d="M14.3292 8.36957L11.8692 8.30957" stroke="white" stroke-width="0.74" stroke-linecap="round" stroke-linejoin="round"/>
<path d="M17.8792 13.4097C17.9392 12.7697 17.8792 11.4097 17.8792 11.4097" stroke="white" stroke-width="0.74" stroke-linecap="round" stroke-linejoin="round"/>
</svg>
