<svg width="24" height="24" viewBox="0 0 24 24" fill="none" xmlns="http://www.w3.org/2000/svg">
<path d="M5.99997 5.79978C5.27915 6.03407 4.62774 6.44358 4.10415 6.99161C3.58056 7.53963 3.20116 8.20903 2.99997 8.93978C2.35997 11.2598 3.35997 14.1398 5.80997 14.9398C6.47032 15.1037 7.15687 15.1333 7.82889 15.0269C8.5009 14.9204 9.14468 14.68 9.72202 14.32C10.2994 13.96 10.7985 13.4877 11.1898 12.9311C11.5811 12.3744 11.8566 11.7449 12 11.0798C12.41 8.96978 11.92 6.67978 9.71997 5.84978C8.5225 5.40644 7.20892 5.38879 5.99997 5.79978Z" stroke="white" stroke-linecap="round" stroke-linejoin="round"/>
<path d="M6.27998 11.8498C6.88998 11.8498 7.90998 11.8498 8.33998 11.2498C8.95998 10.3998 8.21998 9.74984 7.33998 9.90984C7.87998 9.65984 8.20998 9.28984 8.01998 8.82984C7.71998 8.06984 6.68998 8.54984 6.21998 8.67984C6.13404 9.73586 6.15414 10.7978 6.27998 11.8498Z" stroke="white" stroke-width="0.75" stroke-linecap="round" stroke-linejoin="round"/>
<path d="M18.17 1.69989C17.2423 1.66429 16.3287 1.93486 15.57 2.46989C14.9987 2.89096 14.5469 3.45344 14.2588 4.10203C13.9707 4.75063 13.8564 5.46302 13.927 6.1692C13.9976 6.87537 14.2507 7.55101 14.6616 8.12972C15.0724 8.70843 15.6267 9.17028 16.27 9.46989C16.8216 9.69354 17.4162 9.79127 18.0104 9.75594C18.6046 9.72061 19.1834 9.55312 19.7046 9.26568C20.2258 8.97823 20.6763 8.57809 21.0233 8.09442C21.3702 7.61075 21.6048 7.05575 21.71 6.46989C21.8502 5.91861 21.8658 5.34302 21.7558 4.78494C21.6457 4.22687 21.4127 3.70031 21.0737 3.24354C20.7347 2.78676 20.2982 2.41122 19.796 2.14421C19.2937 1.8772 18.7383 1.72542 18.17 1.69989Z" stroke="white" stroke-linecap="round" stroke-linejoin="round"/>
<path d="M17.41 5.64014H18.58" stroke="white" stroke-width="0.75" stroke-linecap="round" stroke-linejoin="round"/>
<path d="M18.68 7.08006C18.01 7.14006 17.24 7.14006 17.24 7.14006C17.24 6.63006 17.24 5.99006 17.24 5.74006C17.24 5.49006 17.3 4.65006 17.3 4.56006H18.38" stroke="white" stroke-width="0.75" stroke-linecap="round" stroke-linejoin="round"/>
<path d="M17.36 13.0799C16.7693 12.9115 16.1438 12.9083 15.5514 13.0705C14.959 13.2327 14.4225 13.5541 14 13.9999C13.6152 14.3582 13.3114 14.7946 13.109 15.2798C12.9065 15.7651 12.8102 16.288 12.8263 16.8135C12.8424 17.339 12.9706 17.855 13.2023 18.327C13.4341 18.7989 13.764 19.2159 14.17 19.5499C16.84 21.5499 20.83 18.7199 19.8 15.5499C19.6256 14.9704 19.312 14.4424 18.8867 14.0119C18.4614 13.5814 17.9373 13.2614 17.36 13.0799Z" stroke="white" stroke-linecap="round" stroke-linejoin="round"/>
<path d="M16.5 15.5202C16.3331 15.5526 16.1747 15.6192 16.0348 15.7159C15.8949 15.8126 15.7766 15.9372 15.6874 16.0819C15.5981 16.2266 15.5398 16.3883 15.5162 16.5567C15.4925 16.725 15.504 16.8965 15.55 17.0602C16.03 18.6102 17.91 17.6102 17.67 16.3302C17.6471 16.1998 17.5986 16.0753 17.5272 15.9638C17.4559 15.8523 17.3631 15.7561 17.2542 15.6807C17.1454 15.6054 17.0227 15.5524 16.8932 15.5248C16.7638 15.4973 16.6301 15.4957 16.5 15.5202Z" stroke="white" stroke-width="0.75" stroke-linecap="round" stroke-linejoin="round"/>
<path d="M17.6 10.1602C17.6 11.0802 17.6 12.0102 17.6 12.9302" stroke="white" stroke-linecap="round" stroke-linejoin="round"/>
<path d="M11.25 13.1899C12.0416 13.5581 12.8127 13.9687 13.56 14.4199" stroke="white" stroke-linecap="round" stroke-linejoin="round"/>
<path d="M11.82 7.27994C12.53 7.00994 13.24 6.71994 13.94 6.43994" stroke="white" stroke-linecap="round" stroke-linejoin="round"/>
</svg>
