<svg width="24" height="24" viewBox="0 0 24 24" fill="none" xmlns="http://www.w3.org/2000/svg">
<path d="M5.32002 3.99994C4.93002 3.99994 3.68002 4.12994 3.32002 4.19994C1.71002 4.45994 2.08002 5.93994 2.08002 7.30994C2.08002 10.8899 2.08002 14.4699 2.08002 18.0399C2.03316 18.396 2.06145 18.758 2.16307 19.1025C2.26469 19.447 2.43739 19.7663 2.67002 20.0399C3.18203 20.3815 3.79859 20.5303 4.41002 20.4599H9.03002C9.73151 20.5267 10.4352 20.3578 11.03 19.9799C11.3355 19.6323 11.5618 19.2224 11.693 18.7786C11.8242 18.3348 11.8573 17.8678 11.79 17.4099V6.90994C11.8771 6.13397 11.6896 5.35201 11.26 4.69994C10.9011 4.38302 10.4764 4.14959 10.0164 4.01644C9.55649 3.8833 9.07275 3.85376 8.60002 3.92994C7.23002 3.93994 6.28002 3.99994 5.32002 3.99994Z" stroke="white" stroke-width="0.97" stroke-linecap="round" stroke-linejoin="round"/>
<path d="M4.53003 7.17L9.29003 7" stroke="white" stroke-width="0.94" stroke-linecap="round" stroke-linejoin="round"/>
<path d="M4.31 9.65016L9.2 9.41016" stroke="white" stroke-width="0.94" stroke-linecap="round" stroke-linejoin="round"/>
<path d="M4.34998 12.0001L9.24998 11.8901" stroke="white" stroke-width="0.94" stroke-linecap="round" stroke-linejoin="round"/>
<path d="M11.85 6.24023C12.71 6.24023 13.58 6.24023 14.44 6.24023" stroke="white" stroke-width="0.73" stroke-linecap="round" stroke-linejoin="round"/>
<path d="M12.07 18C12.92 18 13.78 18 14.64 18" stroke="white" stroke-width="0.73" stroke-linecap="round" stroke-linejoin="round"/>
<path d="M12 12.0898H14.45" stroke="white" stroke-width="0.73" stroke-linecap="round" stroke-linejoin="round"/>
<path d="M14.62 4.53984C14.607 4.52768 14.5966 4.51297 14.5895 4.49663C14.5824 4.48029 14.5787 4.46266 14.5787 4.44484C14.5787 4.42703 14.5824 4.4094 14.5895 4.39306C14.5966 4.37672 14.607 4.36201 14.62 4.34984C14.912 4.13229 15.2273 3.94783 15.56 3.79984L16.06 3.50984C16.22 3.40984 16.38 3.30984 16.54 3.22984L17.49 2.73984C17.6475 2.65443 17.8213 2.60331 18 2.58984C18.1104 2.6021 18.2165 2.63975 18.31 2.69984C18.41 2.75984 19.13 3.15984 19.41 3.29984L20.33 3.77984C20.6455 3.92281 20.944 4.10058 21.22 4.30984C21.22 4.30984 21.07 4.40984 21.06 4.42984C20.8714 4.55074 20.6742 4.65769 20.47 4.74984L19.63 5.21984L19.03 5.53984L18.36 5.90984C18.2562 5.98949 18.1356 6.0444 18.0073 6.0704C17.8791 6.09639 17.7466 6.09278 17.62 6.05984C17.36 5.96984 16.72 5.56984 16.45 5.42984C16.18 5.28984 15.77 5.06984 15.58 4.98984C15.2447 4.87479 14.9229 4.72392 14.62 4.53984Z" stroke="white" stroke-width="0.75" stroke-linecap="round" stroke-linejoin="round"/>
<path d="M14.58 4.44982C14.445 5.5323 14.445 6.62735 14.58 7.70982C14.5774 7.84131 14.6154 7.9704 14.6887 8.07955C14.7621 8.18869 14.8673 8.27259 14.99 8.31982C15.61 8.64982 16.25 8.93982 16.9 9.21982C17.2233 9.37429 17.5575 9.50464 17.9 9.60982C18.41 9.73982 18.9 9.28982 19.31 9.03982L20.31 8.42982C20.52 8.29982 21.02 8.10982 21.1 7.85982C21.1916 7.4397 21.2186 7.00808 21.18 6.57982C21.18 5.81982 21.23 5.06982 21.18 4.31982" stroke="white" stroke-width="0.75" stroke-linecap="round" stroke-linejoin="round"/>
<path d="M17.84 6.12012C17.84 6.37012 17.89 6.61012 17.92 6.86012C17.95 7.11012 17.92 7.29012 17.92 7.51012C17.92 7.94012 17.92 8.37012 17.92 8.81012C17.92 9.00012 17.92 9.20012 17.92 9.39012" stroke="white" stroke-width="0.75" stroke-linecap="round" stroke-linejoin="round"/>
<path d="M21 13.79C20.8 14.21 20 14.52 19.64 14.79C19.1037 15.0907 18.5493 15.3579 17.98 15.59" stroke="white" stroke-width="0.75" stroke-linecap="round" stroke-linejoin="round"/>
<path d="M18 15.56C16.8745 15.1936 15.807 14.6683 14.83 14" stroke="white" stroke-width="0.75" stroke-linecap="round" stroke-linejoin="round"/>
<path d="M14.83 13.9998C14.64 13.8298 14.72 12.7998 14.72 12.2698C14.6898 11.6609 14.7267 11.0506 14.83 10.4498C14.92 10.3198 15.26 10.6498 15.43 10.7498L16.27 11.2198C16.84 11.5398 17.9 12.2198 17.96 12.2198C18.1774 12.0876 18.3877 11.944 18.59 11.7898L19.38 11.2998C19.92 10.9598 20.96 10.2998 21.01 10.2998C21.06 10.2998 21.09 10.4498 21.09 10.6198C21.09 10.7898 21.09 11.5398 21.04 12.1498C21.0795 12.6965 21.0661 13.2457 21 13.7898" stroke="white" stroke-width="0.75" stroke-linecap="round" stroke-linejoin="round"/>
<path d="M18 12.1401V15.3801" stroke="white" stroke-width="0.75" stroke-linecap="round" stroke-linejoin="round"/>
<path d="M21 20C20.8 20.43 20 20.73 19.64 21C19.1037 21.3007 18.5493 21.5679 17.98 21.8" stroke="white" stroke-width="0.75" stroke-linecap="round" stroke-linejoin="round"/>
<path d="M18 21.7501C16.8803 21.3697 15.8224 20.8272 14.86 20.1401" stroke="white" stroke-width="0.75" stroke-linecap="round" stroke-linejoin="round"/>
<path d="M14.83 20.1399C14.64 19.9699 14.72 18.9399 14.72 18.4099C14.6898 17.801 14.7267 17.1907 14.83 16.5899C14.92 16.4599 15.26 16.7999 15.43 16.8899L16.27 17.3699C16.84 17.6899 17.9 18.3699 17.96 18.3199C18.1774 18.1877 18.3877 18.0441 18.59 17.8899L19.38 17.3999C19.92 17.0599 20.96 16.3999 21.01 16.3999C21.06 16.3999 21.09 16.5599 21.09 16.7199C21.09 16.8799 21.09 17.6399 21.04 18.2499C21.0868 18.8331 21.0734 19.4195 21 19.9999" stroke="white" stroke-width="0.75" stroke-linecap="round" stroke-linejoin="round"/>
<path d="M18 18.3301V21.5801" stroke="white" stroke-width="0.75" stroke-linecap="round" stroke-linejoin="round"/>
<path d="M8.67002 18.56C9.09528 18.56 9.44002 18.2153 9.44002 17.79C9.44002 17.3648 9.09528 17.02 8.67002 17.02C8.24477 17.02 7.90002 17.3648 7.90002 17.79C7.90002 18.2153 8.24477 18.56 8.67002 18.56Z" fill="white"/>
</svg>
