<svg width="24" height="24" viewBox="0 0 24 24" fill="none" xmlns="http://www.w3.org/2000/svg">
<path d="M7.08002 2.72996C5.93338 3.15004 4.93776 3.90198 4.22002 4.88996C3.35081 6.17985 2.93598 7.72251 3.04101 9.27438C3.14603 10.8263 3.76494 12.2989 4.80002 13.46C5.47054 14.1962 6.30702 14.7619 7.24002 15.11C8.69346 15.606 10.2712 15.6008 11.7213 15.095C13.1714 14.5893 14.4103 13.6123 15.24 12.32C16.0129 10.9788 16.311 9.41611 16.086 7.88458C15.861 6.35305 15.1261 4.94216 14 3.87996C13.0547 3.08711 11.9141 2.56221 10.6971 2.35995C9.47999 2.15769 8.23094 2.28547 7.08002 2.72996Z" stroke="white" stroke-linecap="round" stroke-linejoin="round"/>
<path d="M5.29001 6.93018C5.16686 7.10911 5.08803 7.31477 5.06001 7.53018C4.99138 7.7699 4.93794 8.01372 4.90001 8.26018C4.83558 8.76479 4.83558 9.27556 4.90001 9.78018C5.0311 10.7408 5.41022 11.6507 6.00001 12.4202" stroke="white" stroke-linecap="round" stroke-linejoin="round"/>
<path d="M7.51998 7.26024C7.74098 7.11492 7.9715 6.98462 8.20998 6.87024C8.46454 6.74307 8.72868 6.63608 8.99998 6.55024C9.10366 6.50329 9.21616 6.479 9.32998 6.479C9.44379 6.479 9.5563 6.50329 9.65998 6.55024C9.94344 6.63837 10.2207 6.74528 10.49 6.87024L11.15 7.24024C11.31 7.34024 11.73 7.51024 11.68 7.66024C11.63 7.81024 10.95 8.05024 10.82 8.11024C10.3764 8.33726 9.90103 8.49573 9.40998 8.58024C8.94608 8.47317 8.49635 8.31207 8.06998 8.10024C7.85998 7.98024 7.38998 7.74024 7.29998 7.51024C7.20998 7.28024 7.45998 7.30024 7.51998 7.26024Z" stroke="white" stroke-linecap="round" stroke-linejoin="round"/>
<path d="M11.67 7.62021C11.67 8.00021 11.67 8.32021 11.67 8.69021C11.67 9.06021 11.67 9.38022 11.67 9.75022C11.67 9.83022 11.67 10.1102 11.59 10.2102C11.1617 10.5031 10.7102 10.7607 10.24 10.9802L9.70001 11.2502C9.59081 11.3093 9.47253 11.3499 9.35001 11.3702C9.24188 11.3603 9.13665 11.3297 9.04001 11.2802C8.87432 11.197 8.71401 11.1035 8.56001 11.0002C8.21001 10.8302 7.79001 10.5702 7.56001 10.4702C7.45819 10.4268 7.36103 10.3732 7.27001 10.3102C7.20001 10.2502 7.21001 9.86022 7.27001 9.77022C7.27001 9.34022 7.27001 8.35021 7.27001 7.47021" stroke="white" stroke-linecap="round" stroke-linejoin="round"/>
<path d="M16.63 13.6899L19.54 16.4099C19.97 16.8099 20.45 17.1999 20.85 17.6399C21.0253 17.7966 21.1644 17.9896 21.2577 18.2055C21.3509 18.4213 21.3961 18.6549 21.39 18.8899C21.3433 19.307 21.1606 19.6971 20.87 19.9999C20.5518 20.3722 20.1929 20.7076 19.8 20.9999C19.6192 21.1474 19.4013 21.2421 19.1703 21.2739C18.9392 21.3056 18.7038 21.2731 18.49 21.1799C18.0035 20.9058 17.57 20.5468 17.21 20.1199C16.8 19.6999 16.4 19.2799 16 18.8399C15.31 18.0899 13.92 16.3099 13.92 16.3099L16.63 13.6899Z" stroke="white" stroke-linecap="round" stroke-linejoin="round"/>
</svg>
