<svg width="24" height="24" viewBox="0 0 24 24" fill="none" xmlns="http://www.w3.org/2000/svg">
<path d="M5.32999 6.33984C5.32999 6.33984 4.32999 6.33984 4.07999 6.75984C3.86937 7.19496 3.77629 7.67761 3.80999 8.15984L3.69999 18.4798C3.63404 18.9234 3.65946 19.3757 3.77467 19.8091C3.88989 20.2424 4.09248 20.6476 4.36999 20.9998C5.04009 21.4845 5.86976 21.6955 6.68999 21.5898C8.80999 21.5898 14.23 21.5898 14.8 21.5098C15.71 21.4198 15.54 19.9398 15.54 19.9398" stroke="white" stroke-width="0.96" stroke-linecap="round" stroke-linejoin="round"/>
<path d="M7.15001 4.78976C7.15001 5.37976 7.08001 7.01976 7.07001 8.06976C7.07001 10.1598 7.07001 12.5498 7.07001 14.6498C6.9572 15.5071 7.15592 16.3765 7.63001 17.0998C8.01893 17.4329 8.47394 17.6799 8.96513 17.8247C9.45632 17.9695 9.97258 18.0087 10.48 17.9398H16.6C17.3109 18.018 18.0251 17.8252 18.6 17.3998C19.0488 16.8086 19.2529 16.0674 19.17 15.3298L19.28 6.20976C19.3558 5.68021 19.3222 5.14074 19.1811 4.62472C19.0401 4.1087 18.7946 3.62712 18.46 3.20976C17.6609 2.6559 16.6837 2.42051 15.72 2.54976L9.37001 2.64976C8.75001 2.64976 7.77001 2.47976 7.37001 3.04976C7.17445 3.60767 7.09947 4.20072 7.15001 4.78976Z" stroke="white" stroke-width="0.96" stroke-linecap="round" stroke-linejoin="round"/>
<path d="M12.14 5.55016L16.26 5.41016" stroke="white" stroke-width="0.96" stroke-linecap="round" stroke-linejoin="round"/>
<path d="M10.15 8.16996L16.15 7.95996" stroke="white" stroke-width="0.96" stroke-linecap="round" stroke-linejoin="round"/>
<path d="M10.24 10.8301L16.34 10.6401" stroke="white" stroke-width="0.96" stroke-linecap="round" stroke-linejoin="round"/>
<path d="M10.25 6.1699C10.5317 6.1699 10.76 5.94157 10.76 5.6599C10.76 5.37824 10.5317 5.1499 10.25 5.1499C9.96833 5.1499 9.73999 5.37824 9.73999 5.6599C9.73999 5.94157 9.96833 6.1699 10.25 6.1699Z" fill="white"/>
</svg>
