<svg width="24" height="24" viewBox="0 0 24 24" fill="none" xmlns="http://www.w3.org/2000/svg">
<path d="M3.52001 8.5799C1.22001 11.2699 3.02001 16.4199 6.86001 16.2899C7.83903 16.1938 8.75979 15.7802 9.48194 15.1123C10.2041 14.4443 10.688 13.5585 10.86 12.5899C11.1036 11.7354 11.0616 10.8246 10.7403 9.99618C10.419 9.16771 9.83606 8.46677 9.08001 7.9999C7.63001 7.2499 5.55001 6.9999 4.17001 7.9999C3.92971 8.16499 3.7113 8.35988 3.52001 8.5799Z" stroke="white" stroke-width="1.02" stroke-linecap="round" stroke-linejoin="round"/>
<path d="M7.21999 10.2299C6.90999 9.61993 6.05999 9.53993 5.99999 10.3499C5.93999 11.1599 6.77999 11.5399 7.09999 12.1499C7.98999 13.8099 5.60999 14.3999 5.42999 12.3299" stroke="white" stroke-width="1.02" stroke-linecap="round" stroke-linejoin="round"/>
<path d="M6.57001 8.75V9.61" stroke="white" stroke-width="1.02" stroke-linecap="round" stroke-linejoin="round"/>
<path d="M6.62 13.9102V14.5502" stroke="white" stroke-width="1.02" stroke-linecap="round" stroke-linejoin="round"/>
<path d="M17.62 10.2299C17.3 9.61993 16.45 9.53993 16.39 10.3499C16.33 11.1599 17.17 11.5399 17.5 12.1499C18.38 13.8099 16 14.3999 15.83 12.3299" stroke="white" stroke-width="1.02" stroke-linecap="round" stroke-linejoin="round"/>
<path d="M17 8.75C17 9.04 17 9.61 17 9.61" stroke="white" stroke-width="1.02" stroke-linecap="round" stroke-linejoin="round"/>
<path d="M17 13.9102C17 14.1902 17 14.5502 17 14.5502" stroke="white" stroke-width="1.02" stroke-linecap="round" stroke-linejoin="round"/>
<path d="M14.15 8.00015C11.64 10.6302 13 15.9202 17 16.0002C18.0143 15.9634 18.987 15.5879 19.7628 14.9335C20.5386 14.2791 21.0728 13.3837 21.28 12.3902C21.5888 11.527 21.5979 10.5849 21.3058 9.71589C21.0138 8.84689 20.4375 8.10158 19.67 7.60015C18.9482 7.13799 18.1136 6.88245 17.2568 6.86129C16.4 6.84014 15.5537 7.05417 14.81 7.48015C14.5724 7.62983 14.3511 7.80413 14.15 8.00015Z" stroke="white" stroke-width="1.02" stroke-linecap="round" stroke-linejoin="round"/>
<path d="M8.45999 18.3401C9.19999 18.3401 9.92999 18.2301 10.66 18.2101C11.39 18.1901 12.21 18.2101 12.99 18.2101C13.42 18.2101 13.86 18.2101 14.3 18.2101" stroke="white" stroke-width="1.02" stroke-linecap="round" stroke-linejoin="round"/>
<path d="M13.26 17C13.88 17.45 14.54 17.85 15.16 18.29" stroke="white" stroke-width="1.02" stroke-linecap="round" stroke-linejoin="round"/>
<path d="M15.16 18.2798C14.4704 18.5778 13.8403 18.9979 13.3 19.5198" stroke="white" stroke-width="1.02" stroke-linecap="round" stroke-linejoin="round"/>
<path d="M15.83 4.70994C15.13 4.70994 14.42 4.60994 13.72 4.58994C13.02 4.56994 12.13 4.58994 11.34 4.58994C10.89 4.58994 10.43 4.58994 9.98001 4.58994" stroke="white" stroke-width="1.02" stroke-linecap="round" stroke-linejoin="round"/>
<path d="M11 3.37988C10.38 3.82988 9.73001 4.22988 9.10001 4.67988" stroke="white" stroke-width="1.02" stroke-linecap="round" stroke-linejoin="round"/>
<path d="M9.12 4.68018C9.81852 4.96815 10.4564 5.38546 11 5.91018" stroke="white" stroke-width="1.02" stroke-linecap="round" stroke-linejoin="round"/>
</svg>
