<svg width="24" height="24" viewBox="0 0 24 24" fill="none" xmlns="http://www.w3.org/2000/svg">
<path d="M17.28 12.9302H17.41C18.72 12.8802 20.02 12.8502 21.33 12.8702C21.4363 12.8559 21.5444 12.8656 21.6465 12.8984C21.7486 12.9313 21.842 12.9866 21.92 13.0602C21.991 13.1712 22.0323 13.2986 22.04 13.4302C22.0966 13.9984 22.1233 14.5692 22.12 15.1402C22.12 15.7202 21.93 16.0502 21.32 16.1402C20.25 16.2602 19.17 16.3202 18.09 16.3502C17.7011 16.4203 17.3012 16.3981 16.9225 16.2852C16.5438 16.1722 16.197 15.9719 15.91 15.7002C15.6755 15.3541 15.5726 14.9355 15.62 14.5202C15.6302 14.2436 15.7085 13.9738 15.8481 13.7348C15.9877 13.4958 16.1841 13.295 16.42 13.1502C16.6875 13.0158 16.9809 12.9408 17.28 12.9302Z" stroke="white" stroke-width="1.03" stroke-linecap="round" stroke-linejoin="round"/>
<path d="M17.68 14.4502C17.76 14.5202 17.76 14.7402 17.59 14.6802C17.5715 14.6711 17.5552 14.658 17.5424 14.6419C17.5295 14.6258 17.5203 14.607 17.5156 14.5869C17.5108 14.5669 17.5105 14.546 17.5147 14.5258C17.5189 14.5056 17.5276 14.4866 17.54 14.4702C17.6 14.4202 17.65 14.4202 17.68 14.4502Z" stroke="white" stroke-width="1.03" stroke-linecap="round" stroke-linejoin="round"/>
<path d="M11.57 6.20985C12.7215 5.40182 13.9632 4.73063 15.27 4.20985C16.69 3.64985 17.15 5.20985 17.82 6.20985" stroke="white" stroke-width="1.03" stroke-linecap="round" stroke-linejoin="round"/>
<path d="M7.35001 6.32012C8.78896 5.0406 10.298 3.84208 11.87 2.73012C12.0768 2.56663 12.3151 2.44749 12.57 2.38012C12.8387 2.37585 13.1053 2.42894 13.3519 2.53585C13.5985 2.64276 13.8194 2.80104 14 3.00012" stroke="white" stroke-width="1.03" stroke-linecap="round" stroke-linejoin="round"/>
<path d="M20.46 10.6798C20.48 9.90929 20.46 9.13825 20.4 8.36981C20.3952 8.23771 20.3537 8.10957 20.28 7.99981C20.1923 7.91875 20.0873 7.85863 19.973 7.82399C19.8587 7.78935 19.738 7.78108 19.62 7.79981C17.79 7.85981 15.96 7.97981 14.13 8.01981C10.85 8.08981 7.58001 8.12981 4.30001 8.21981C4.04537 8.19917 3.79132 8.26621 3.58001 8.40981C3.47749 8.5261 3.40121 8.6631 3.35634 8.81149C3.31148 8.95989 3.29909 9.1162 3.32001 9.26981C3.32001 11.0898 3.32001 12.9098 3.32001 14.7298C3.32001 15.6398 3.13001 19.1898 3.18001 20.0498C3.18001 20.5398 3.39001 21.0498 3.96001 20.9998C7.75001 20.9998 11.57 21.0598 13.45 21.0498C14.18 21.0498 18.83 21.1198 19.45 20.9498C19.6993 20.8923 19.9211 20.7503 20.0778 20.5481C20.2345 20.3458 20.3166 20.0956 20.31 19.8398C20.31 19.3298 20.31 18.8398 20.31 18.2898" stroke="white" stroke-width="1.03" stroke-linecap="round" stroke-linejoin="round"/>
</svg>
