<svg width="22" height="22" viewBox="0 0 22 22" fill="none" xmlns="http://www.w3.org/2000/svg">
<path d="M7.84802 11.314V15.059" stroke="white" stroke-width="1.5" stroke-linecap="round" stroke-linejoin="round"/>
<path d="M9.75899 13.187H5.93799" stroke="white" stroke-width="1.5" stroke-linecap="round" stroke-linejoin="round"/>
<path d="M14.366 11.4282H14.259" stroke="white" stroke-width="1.5" stroke-linecap="round" stroke-linejoin="round"/>
<path d="M16.18 15.0029H16.073" stroke="white" stroke-width="1.5" stroke-linecap="round" stroke-linejoin="round"/>
<path d="M7.07216 1C7.07216 1.74048 7.68465 2.34076 8.44018 2.34076H9.49666C10.6623 2.34492 11.6064 3.27026 11.6117 4.41266V5.08771M15.4283 20.9626C12.4231 21.0135 9.47303 21.0114 6.57275 20.9626C3.3535 20.9626 1 18.6664 1 15.5113V10.8617C1 7.70661 3.3535 5.41039 6.57275 5.41039C9.48893 5.36054 12.4411 5.36158 15.4283 5.41039C18.6476 5.41039 21 7.70765 21 10.8617V15.5113C21 18.6664 18.6476 20.9626 15.4283 20.9626Z" stroke="white" stroke-width="1.5" stroke-linecap="round" stroke-linejoin="round"/>
</svg>
