<svg width="24" height="24" viewBox="0 0 24 24" fill="none" xmlns="http://www.w3.org/2000/svg">
<g clip-path="url(#clip0_36_5381)">
<path d="M11.625 11.25H12.375C12.5739 11.25 12.7647 11.329 12.9053 11.4696C13.046 11.6103 13.125 11.8011 13.125 12C13.125 12.0994 13.1645 12.1948 13.2348 12.2651C13.3052 12.3355 13.4005 12.375 13.5 12.375C13.5995 12.375 13.6948 12.3355 13.7652 12.2651C13.8355 12.1948 13.875 12.0994 13.875 12C13.8738 11.6025 13.7154 11.2217 13.4344 10.9406C13.1533 10.6596 12.7725 10.5012 12.375 10.5V10.125C12.375 10.0255 12.3355 9.93013 12.2652 9.8598C12.1948 9.78948 12.0995 9.74997 12 9.74997C11.9005 9.74997 11.8052 9.78948 11.7348 9.8598C11.6645 9.93013 11.625 10.0255 11.625 10.125V10.5C11.2272 10.5 10.8456 10.658 10.5643 10.9393C10.283 11.2206 10.125 11.6021 10.125 12C10.125 12.3978 10.283 12.7793 10.5643 13.0606C10.8456 13.3419 11.2272 13.5 11.625 13.5H12.375C12.5739 13.5 12.7647 13.579 12.9053 13.7196C13.046 13.8603 13.125 14.0511 13.125 14.25C13.125 14.4489 13.046 14.6396 12.9053 14.7803C12.7647 14.9209 12.5739 15 12.375 15H11.625C11.4261 15 11.2353 14.9209 11.0947 14.7803C10.954 14.6396 10.875 14.4489 10.875 14.25C10.875 14.1505 10.8355 14.0551 10.7652 13.9848C10.6948 13.9145 10.5995 13.875 10.5 13.875C10.4005 13.875 10.3052 13.9145 10.2348 13.9848C10.1645 14.0551 10.125 14.1505 10.125 14.25C10.1262 14.6474 10.2846 15.0283 10.5657 15.3093C10.8467 15.5904 11.2275 15.7488 11.625 15.75V16.125C11.625 16.2244 11.6645 16.3198 11.7348 16.3901C11.8052 16.4605 11.9005 16.5 12 16.5C12.0995 16.5 12.1948 16.4605 12.2652 16.3901C12.3355 16.3198 12.375 16.2244 12.375 16.125V15.75C12.7728 15.75 13.1544 15.5919 13.4357 15.3106C13.717 15.0293 13.875 14.6478 13.875 14.25C13.875 13.8521 13.717 13.4706 13.4357 13.1893C13.1544 12.908 12.7728 12.75 12.375 12.75H11.625C11.4261 12.75 11.2353 12.671 11.0947 12.5303C10.954 12.3896 10.875 12.1989 10.875 12C10.875 11.8011 10.954 11.6103 11.0947 11.4696C11.2353 11.329 11.4261 11.25 11.625 11.25ZM23.73 6.31572C23.7284 6.24794 23.7078 6.18197 23.6708 6.12522C23.6708 6.12072 23.6708 6.11622 23.6708 6.11172V6.10497C23.6318 5.80432 23.5183 5.51817 23.3408 5.27247L20.6325 1.47747C20.4818 1.26337 20.2843 1.0864 20.055 0.959968C20.0308 0.93584 20.0029 0.915602 19.9725 0.899968C19.965 0.899968 19.9575 0.892468 19.95 0.892468C19.6879 0.757854 19.3972 0.688393 19.1025 0.689968H4.89751C4.63046 0.690009 4.3667 0.748906 4.12501 0.862468C4.10871 0.867559 4.0931 0.87461 4.07851 0.883468C4.05999 0.888741 4.04193 0.895513 4.02451 0.903718C4.02001 0.903718 4.01775 0.911218 4.01325 0.914218C3.75959 1.04914 3.54121 1.24183 3.37575 1.47672L0.667505 5.27247C0.490065 5.51544 0.376585 5.79915 0.337505 6.09747C0.337505 6.10347 0.337505 6.10947 0.337505 6.11472C0.296856 6.16949 0.2738 6.23532 0.27139 6.30349C0.268979 6.37166 0.287327 6.43896 0.324005 6.49647C0.324005 6.50097 0.324005 6.50547 0.324005 6.50997C0.346522 6.81745 0.446643 7.1142 0.615005 7.37247L11.055 23.5425C11.157 23.7004 11.2969 23.8302 11.462 23.9201C11.6271 24.01 11.812 24.0571 12 24.0571C12.188 24.0571 12.3729 24.01 12.538 23.9201C12.7031 23.8302 12.843 23.7004 12.945 23.5425L23.3925 7.37247C23.5648 7.11044 23.6656 6.80795 23.685 6.49497C23.685 6.49497 23.685 6.48822 23.685 6.48522C23.7135 6.4332 23.729 6.37503 23.73 6.31572ZM19.9125 1.78497C19.9515 1.82401 19.9867 1.86671 20.0175 1.91247L22.7325 5.70747C22.7851 5.77901 22.8279 5.85719 22.86 5.93997H17.5613L19.9058 1.77897L19.9125 1.78497ZM19.1025 1.43997C19.1451 1.43849 19.1878 1.44101 19.23 1.44747L16.842 5.68947L12.78 1.43997H19.1025ZM15.5625 9.80997C15.1252 9.33567 14.5975 8.95355 14.0104 8.68602C13.4233 8.4185 12.7887 8.27097 12.1439 8.25211C11.499 8.23324 10.8568 8.34342 10.2551 8.57617C9.65345 8.80892 9.10432 9.15955 8.64001 9.60747L7.86751 6.69072H16.4325L15.5625 9.80997ZM16.125 13.125C16.1265 13.6671 16.0208 14.2042 15.814 14.7053C15.6073 15.2064 15.3035 15.6618 14.9201 16.0451C14.5368 16.4284 14.0815 16.7322 13.5803 16.939C13.0792 17.1458 12.5421 17.2515 12 17.25C11.5271 17.2515 11.0575 17.1703 10.6125 17.01C10.294 16.897 9.99148 16.7432 9.71251 16.5525C8.87616 15.9975 8.2718 15.1557 8.01343 14.1858C7.75507 13.2159 7.86056 12.1849 8.31001 11.2875C8.4587 10.9851 8.64519 10.7028 8.865 10.4475C9.26821 9.97409 9.77341 9.5982 10.3427 9.34801C10.912 9.09783 11.5305 8.97986 12.1519 9.00296C12.7733 9.02605 13.3814 9.18961 13.9305 9.48136C14.4796 9.77311 14.9556 10.1855 15.3225 10.6875C15.5397 10.9731 15.714 11.289 15.84 11.625C16.0308 12.1019 16.1276 12.6113 16.125 13.125ZM16.0425 5.93997H8.22001L9.135 4.92072L12.0075 1.72497L16.0425 5.93997ZM4.89751 1.43997H11.25L7.434 5.69097L4.8 1.44747C4.83213 1.44138 4.86483 1.43886 4.89751 1.43997ZM1.155 5.93997C1.18133 5.85614 1.22192 5.77749 1.275 5.70747L3.9825 1.91247C4.02222 1.85908 4.06611 1.80892 4.11376 1.76247L6.70651 5.94072L1.155 5.93997ZM1.245 6.96747C1.1893 6.882 1.14658 6.78873 1.11825 6.69072H7.0875L8.0475 10.2907C7.44487 11.1125 7.12155 12.1059 7.125 13.125C7.12688 14.0598 7.39716 14.9745 7.90371 15.7603C8.41026 16.546 9.13178 17.1698 9.98251 17.5575L11.3175 22.5675L1.245 6.96747ZM12.06 22.4325L10.8375 17.8575C11.2174 17.9542 11.608 18.0021 12 18C12.454 17.9992 12.9057 17.9361 13.3425 17.8125L12.06 22.4325ZM22.7625 6.96747L12.885 22.2525L14.22 17.46C14.8203 17.1536 15.3505 16.7259 15.7769 16.204C16.2033 15.6821 16.5167 15.0773 16.6972 14.4279C16.8777 13.7786 16.9213 13.0988 16.8254 12.4317C16.7295 11.7646 16.4961 11.1247 16.14 10.5525L17.2125 6.69072H22.89C22.8615 6.78878 22.8185 6.88205 22.7625 6.96747Z" fill="white"/>
</g>
<defs>
<clipPath id="clip0_36_5381">
<rect width="24" height="24" fill="white"/>
</clipPath>
</defs>
</svg>
