<svg width="30" height="21" viewBox="0 0 30 21" fill="none" xmlns="http://www.w3.org/2000/svg">
<path d="M29.6026 1.11991e-09H0.397351C0.345169 -3.86867e-06 0.293497 0.0100213 0.245287 0.0295028C0.197076 0.0489844 0.153271 0.077541 0.116373 0.113542C0.0794744 0.149542 0.0502058 0.192282 0.0302385 0.23932C0.0102711 0.286357 -3.96514e-06 0.336772 1.14783e-09 0.387684V20.6123C-3.96514e-06 20.6632 0.0102711 20.7136 0.0302385 20.7607C0.0502058 20.8077 0.0794744 20.8505 0.116373 20.8865C0.153271 20.9225 0.197076 20.951 0.245287 20.9705C0.293497 20.99 0.345169 21 0.397351 21H29.6026C29.6548 21 29.7065 20.99 29.7547 20.9705C29.8029 20.951 29.8467 20.9225 29.8836 20.8865C29.9205 20.8505 29.9498 20.8077 29.9698 20.7607C29.9897 20.7136 30 20.6632 30 20.6123V0.387684C30 0.336772 29.9897 0.286357 29.9698 0.23932C29.9498 0.192282 29.9205 0.149542 29.8836 0.113542C29.8467 0.077541 29.8029 0.0489844 29.7547 0.0295028C29.7065 0.0100213 29.6548 -3.86867e-06 29.6026 1.11991e-09ZM3.77406 20.2246L2.86651 19.3392H27.1335L26.2259 20.2246H3.77406ZM0.794702 3.67566C0.807482 3.66667 0.81969 3.65693 0.831258 3.6465L1.74834 2.75173V18.2482L0.831258 17.3534C0.819687 17.343 0.807479 17.3333 0.794702 17.3243V3.67566ZM26.226 0.775369L27.1335 1.66076H2.86651L3.77398 0.775369H26.226ZM27.457 18.5638H2.54305V2.43613H27.457V18.5638ZM28.2517 2.75173L29.1687 3.6465C29.1803 3.65693 29.1925 3.66667 29.2053 3.67566V17.3243C29.1925 17.3333 29.1803 17.343 29.1687 17.3534L28.2517 18.2482V2.75173ZM29.2053 2.58575L27.3498 0.775369H29.2053V2.58575ZM2.65022 0.775369L0.794702 2.58575V0.775369H2.65022ZM0.794702 18.4142L2.6503 20.2246H0.794702V18.4142ZM27.3497 20.2246L29.2053 18.4142V20.2246H27.3497ZM6.39735 4.5478C6.39735 4.49688 6.40762 4.44647 6.42759 4.39943C6.44756 4.35239 6.47683 4.30965 6.51372 4.27365C6.55062 4.23765 6.59443 4.2091 6.64264 4.18961C6.69085 4.17013 6.74252 4.16011 6.7947 4.16011H23.2053C23.3107 4.16011 23.4118 4.20096 23.4863 4.27366C23.5608 4.34637 23.6026 4.44498 23.6026 4.5478C23.6026 4.65062 23.5608 4.74923 23.4863 4.82193C23.4118 4.89464 23.3107 4.93548 23.2053 4.93548H6.7947C6.74252 4.93548 6.69085 4.92546 6.64264 4.90598C6.59443 4.8865 6.55062 4.85794 6.51372 4.82194C6.47683 4.78594 6.44756 4.7432 6.42759 4.69616C6.40762 4.64912 6.39735 4.59871 6.39735 4.5478ZM8.2649 11.6424C8.15952 11.6424 8.05845 11.6016 7.98393 11.5289C7.90941 11.4562 7.86755 11.3576 7.86755 11.2547C7.86755 11.1519 7.90941 11.0533 7.98393 10.9806C8.05845 10.9079 8.15952 10.8671 8.2649 10.8671H21.7351C21.8405 10.8671 21.9416 10.9079 22.0161 10.9806C22.0906 11.0533 22.1325 11.1519 22.1325 11.2547C22.1325 11.3576 22.0906 11.4562 22.0161 11.5289C21.9416 11.6016 21.8405 11.6424 21.7351 11.6424H8.2649ZM4.45033 6.60252C4.45033 6.55161 4.4606 6.5012 4.48057 6.45416C4.50054 6.40712 4.52981 6.36438 4.5667 6.32838C4.6036 6.29238 4.64741 6.26382 4.69562 6.24434C4.74383 6.22486 4.7955 6.21483 4.84768 6.21484H25.1523C25.2577 6.21484 25.3588 6.25568 25.4333 6.32839C25.5078 6.40109 25.5497 6.4997 25.5497 6.60252C25.5497 6.70534 25.5078 6.80395 25.4333 6.87666C25.3588 6.94936 25.2577 6.99021 25.1523 6.99021H4.84768C4.7955 6.99021 4.74383 6.98019 4.69562 6.9607C4.64741 6.94122 4.6036 6.91267 4.5667 6.87667C4.52981 6.84067 4.50054 6.79793 4.48057 6.75089C4.4606 6.70385 4.45033 6.65344 4.45033 6.60252ZM4.45033 8.73479C4.45033 8.68387 4.4606 8.63346 4.48057 8.58642C4.50054 8.53938 4.52981 8.49664 4.5667 8.46064C4.6036 8.42464 4.64741 8.39609 4.69562 8.37661C4.74383 8.35712 4.7955 8.3471 4.84768 8.3471H25.1523C25.2577 8.3471 25.3588 8.38795 25.4333 8.46065C25.5078 8.53336 25.5497 8.63197 25.5497 8.73479C25.5497 8.83761 25.5078 8.93622 25.4333 9.00892C25.3588 9.08163 25.2577 9.12247 25.1523 9.12247H4.84768C4.7955 9.12248 4.74383 9.11245 4.69562 9.09297C4.64741 9.07349 4.6036 9.04493 4.5667 9.00893C4.52981 8.97293 4.50054 8.93019 4.48057 8.88315C4.4606 8.83611 4.45033 8.7857 4.45033 8.73479ZM15 12.9476C14.552 12.9476 14.1142 13.0772 13.7417 13.32C13.3692 13.5628 13.0789 13.908 12.9075 14.3117C12.7361 14.7155 12.6912 15.1599 12.7786 15.5885C12.866 16.0172 13.0817 16.4109 13.3985 16.72C13.7152 17.029 14.1188 17.2395 14.5581 17.3247C14.9975 17.41 15.4529 17.3662 15.8667 17.199C16.2806 17.0317 16.6343 16.7485 16.8832 16.3851C17.1321 16.0217 17.2649 15.5945 17.2649 15.1574C17.2642 14.5715 17.0254 14.0098 16.6008 13.5956C16.1762 13.1813 15.6005 12.9483 15 12.9476ZM15 16.5918C14.7092 16.5918 14.425 16.5077 14.1832 16.3501C13.9414 16.1925 13.753 15.9684 13.6417 15.7063C13.5304 15.4442 13.5013 15.1558 13.5581 14.8776C13.6148 14.5993 13.7548 14.3437 13.9604 14.1431C14.166 13.9425 14.428 13.8059 14.7132 13.7505C14.9984 13.6952 15.294 13.7236 15.5626 13.8322C15.8313 13.9407 16.0609 14.1246 16.2224 14.3605C16.384 14.5964 16.4702 14.8737 16.4702 15.1574C16.4698 15.5377 16.3147 15.9023 16.0391 16.1712C15.7635 16.4401 15.3898 16.5914 15 16.5918ZM24.3179 15.1574C24.3179 15.2083 24.3076 15.2587 24.2876 15.3058C24.2677 15.3528 24.2384 15.3955 24.2015 15.4315C24.1646 15.4675 24.1208 15.4961 24.0726 15.5156C24.0244 15.5351 23.9727 15.5451 23.9205 15.5451H18.8742C18.7688 15.5451 18.6677 15.5042 18.5932 15.4315C18.5187 15.3588 18.4768 15.2602 18.4768 15.1574C18.4768 15.0546 18.5187 14.956 18.5932 14.8833C18.6677 14.8106 18.7688 14.7697 18.8742 14.7697H23.9205C23.9727 14.7697 24.0244 14.7797 24.0726 14.7992C24.1208 14.8187 24.1646 14.8473 24.2015 14.8833C24.2384 14.9193 24.2677 14.962 24.2876 15.009C24.3076 15.0561 24.3179 15.1065 24.3179 15.1574ZM11.5232 15.1574C11.5232 15.2083 11.5129 15.2587 11.4929 15.3058C11.473 15.3528 11.4437 15.3955 11.4068 15.4315C11.3699 15.4675 11.3261 15.4961 11.2779 15.5156C11.2297 15.5351 11.178 15.5451 11.1258 15.5451H6.07947C5.97409 15.5451 5.87302 15.5042 5.7985 15.4315C5.72398 15.3588 5.68212 15.2602 5.68212 15.1574C5.68212 15.0546 5.72398 14.956 5.7985 14.8833C5.87302 14.8106 5.97409 14.7697 6.07947 14.7697H11.1258C11.178 14.7697 11.2297 14.7797 11.2779 14.7992C11.3261 14.8187 11.3699 14.8473 11.4068 14.8833C11.4437 14.9193 11.473 14.962 11.4929 15.009C11.5129 15.0561 11.5232 15.1065 11.5232 15.1574Z" fill="white"/>
</svg>
