<svg width="76" height="47" viewBox="0 0 76 47" fill="none" xmlns="http://www.w3.org/2000/svg">
<path d="M2.60938 22.2706V9.15234H10.4366V11.776H13.0457V19.647H10.4366V22.2706H2.60938ZM5.21846 19.647H10.3323V11.776H5.21846V19.647ZM18.2639 22.2706V9.15234H26.0911V11.776H20.873V14.3997H26.0911V17.0233H20.873V19.647H26.0911V22.2706H18.2639ZM33.9184 11.776V9.15234H41.7456V11.776H33.9184ZM31.3093 19.647V11.776H33.9184V19.647H31.3093ZM39.1366 19.647V17.0233H36.5275V14.3997H41.7456V19.647H39.1366ZM33.9184 22.2706V19.647H39.1366V22.2706H33.9184ZM46.9638 22.2706V9.15234H54.7911V11.776H49.5729V14.3997H54.7911V17.0233H49.5729V19.647H54.7911V22.2706H46.9638ZM60.0092 22.2706V9.15234H62.6183V11.776H65.2274V14.3997H67.8365V17.0233H70.4456V9.15234H73.0547V22.2706H70.4456V19.647H67.8365V17.0233H65.2274V14.3997H62.6183V22.2706H60.0092Z" fill="white"/>
<path d="M4.97338 41.7832V39.4875H2.69043V32.6004H4.97338V30.3047H11.8222V32.6004H14.1052V34.8961H9.53928V32.6004H7.25633V39.4875H9.53928V37.1918H14.1052V39.4875H11.8222V41.7832H4.97338ZM25.3373 41.7832V39.4875H23.0543V32.6004H25.3373V30.3047H32.1861V32.6004H34.4691V39.4875H32.1861V41.7832H25.3373ZM27.6202 39.3957H29.9032V32.6922H27.6202V39.3957ZM43.4182 41.7832V30.3047H52.55V32.6004H54.833V39.4875H52.55V41.7832H43.4182ZM47.9841 39.4875H50.1758V32.6004H47.9841V39.4875ZM63.7822 41.7832V30.3047H72.9139V32.6004H68.3481V34.8961H72.9139V37.1918H68.3481V39.4875H72.9139V41.7832H63.7822Z" fill="white"/>
</svg>
