<svg width="76" height="47" viewBox="0 0 76 47" fill="none" xmlns="http://www.w3.org/2000/svg">
<path d="M2.60913 22.2706V9.15234H10.4364V11.776H13.0455V19.647H10.4364V22.2706H2.60913ZM5.21822 19.647H10.332V11.776H5.21822V19.647ZM18.2636 22.2706V9.15234H26.0909V11.776H20.8727V14.3997H26.0909V17.0233H20.8727V19.647H26.0909V22.2706H18.2636ZM33.9181 11.776V9.15234H41.7454V11.776H33.9181ZM31.3091 19.647V11.776H33.9181V19.647H31.3091ZM39.1363 19.647V17.0233H36.5272V14.3997H41.7454V19.647H39.1363ZM33.9181 22.2706V19.647H39.1363V22.2706H33.9181ZM46.9636 22.2706V9.15234H54.7908V11.776H49.5727V14.3997H54.7908V17.0233H49.5727V19.647H54.7908V22.2706H46.9636ZM60.009 22.2706V9.15234H62.6181V11.776H65.2272V14.3997H67.8362V17.0233H70.4453V9.15234H73.0544V22.2706H70.4453V19.647H67.8362V17.0233H65.2272V14.3997H62.6181V22.2706H60.009Z" fill="#FFAD03"/>
<path d="M4.97362 41.7832V39.4875H2.69067V32.6004H4.97362V30.3047H11.8225V32.6004H14.1054V34.8961H9.53952V32.6004H7.25657V39.4875H9.53952V37.1918H14.1054V39.4875H11.8225V41.7832H4.97362ZM25.3375 41.7832V39.4875H23.0546V32.6004H25.3375V30.3047H32.1864V32.6004H34.4693V39.4875H32.1864V41.7832H25.3375ZM27.6205 39.3957H29.9034V32.6922H27.6205V39.3957ZM43.4185 41.7832V30.3047H52.5503V32.6004H54.8332V39.4875H52.5503V41.7832H43.4185ZM47.9844 39.4875H50.176V32.6004H47.9844V39.4875ZM63.7824 41.7832V30.3047H72.9142V32.6004H68.3483V34.8961H72.9142V37.1918H68.3483V39.4875H72.9142V41.7832H63.7824Z" fill="#FFAD03"/>
</svg>
